<?xml version="1.0" encoding="UTF-8"?>
<svg version="1.1" xmlns="http://www.w3.org/2000/svg" width="2048" height="2048">
<path d="M0 0 C675.84 0 1351.68 0 2048 0 C2048 675.84 2048 1351.68 2048 2048 C1372.16 2048 696.32 2048 0 2048 C0 1372.16 0 696.32 0 0 Z " fill="#EDEEE9" transform="translate(0,0)"/>
<path d="M0 0 C675.84 0 1351.68 0 2048 0 C2048 133.98 2048 267.96 2048 406 C1372.16 406 696.32 406 0 406 C0 272.02 0 138.04 0 0 Z " fill="#2C353D" transform="translate(0,1642)"/>
<path d="M0 0 C2.40667667 -0.00217755 4.81288686 -0.02037256 7.21948242 -0.03930664 C20.96163105 -0.09010534 34.20032182 1.34690687 47.6784668 4.12280273 C48.48477539 4.27942383 49.29108398 4.43604492 50.12182617 4.59741211 C55.6600589 5.71575194 60.92555609 7.27735478 66.2409668 9.18530273 C67.23483398 9.53850586 68.22870117 9.89170898 69.25268555 10.25561523 C87.08165026 17.28309038 100.92702128 28.5181685 109.2409668 46.18530273 C110.00223614 48.50457362 110.62897282 50.81971065 111.2409668 53.18530273 C112.76463867 53.1330957 112.76463867 53.1330957 114.3190918 53.07983398 C129.6746117 52.71083698 142.7322597 55.40427134 154.7409668 65.56030273 C176.4802394 86.34905707 185.23330736 118.9767539 186.35542297 148.16223145 C186.42029791 151.21051445 186.45714941 154.25750409 186.47924805 157.30639648 C186.4890419 158.43231705 186.49883575 159.55823761 186.50892639 160.71827698 C186.76755774 198.21338518 183.84473445 233.51121896 176.2409668 270.18530273 C177.03172607 270.48694336 177.82248535 270.78858398 178.63720703 271.09936523 C183.49298092 273.12453938 186.21766709 277.07717581 188.4753418 281.72827148 C195.58204466 299.16029263 193.28196178 319.73807297 186.4050293 336.98999023 C184.51029119 341.46921761 182.41722785 345.83716384 180.2409668 350.18530273 C179.46366211 351.77858398 179.46366211 351.77858398 178.6706543 353.40405273 C175.2837874 359.99271184 171.00282937 365.53661555 166.2409668 371.18530273 C165.24709961 372.46727539 165.24709961 372.46727539 164.2331543 373.77514648 C162.42761992 375.95948905 160.72724481 377.64939014 158.4909668 379.37280273 C157.87737305 379.86135742 157.2637793 380.34991211 156.6315918 380.85327148 C154.261393 382.17392147 152.87038718 382.41426433 150.24487305 382.80639648 C147.66066927 383.40401985 146.56211727 383.76689742 144.9309082 385.89208984 C143.78487814 388.24285943 142.84055173 390.60923246 141.9284668 393.06030273 C141.17771329 394.88613792 140.41966214 396.70898637 139.6550293 398.52905273 C139.26476562 399.46620117 138.87450195 400.40334961 138.47241211 401.36889648 C132.98821842 413.91165191 125.75675092 425.69849478 117.47045898 436.57055664 C116.2251609 438.20606131 115.00166605 439.85629141 113.7800293 441.50952148 C108.83353457 448.1390154 103.54898392 454.31001507 97.8815918 460.33374023 C97.01018555 461.27475586 96.1387793 462.21577148 95.2409668 463.18530273 C94.69972168 463.63558838 94.15847656 464.08587402 93.60083008 464.54980469 C89.39887213 468.4288701 88.79034117 471.70213047 88.5144043 477.36889648 C88.4981934 479.42100901 88.51921399 481.46697147 88.56860352 483.51855469 C88.61580062 485.61541997 88.60971091 487.7071811 88.59643555 489.80444336 C88.63059951 497.30946154 89.30381097 502.7305632 93.2409668 509.18530273 C93.2409668 510.17530273 93.2409668 511.16530273 93.2409668 512.18530273 C74.52823893 520.99129232 55.81551107 529.7972819 37.1027832 538.60327148 C36.44518005 538.91280762 35.7875769 539.22234375 35.11004639 539.54125977 C33.81165821 540.15211427 32.51303804 540.76247592 31.21417236 541.37231445 C27.64975508 543.0467298 24.09128719 544.73278313 20.53833008 546.43139648 C19.75921768 546.80228394 18.98010529 547.17317139 18.17738342 547.55529785 C16.66680574 548.27458155 15.15765891 548.99687981 13.65013123 549.72253418 C8.46600958 552.18530273 8.46600958 552.18530273 6.2409668 552.18530273 C6.64186523 552.63518555 7.04276367 553.08506836 7.45581055 553.54858398 C12.07601587 558.77643535 16.51718066 564.13336204 20.91186523 569.55151367 C22.35211448 571.32193027 23.80008338 573.08585479 25.2487793 574.84936523 C37.35859714 589.62293633 48.81096821 604.88352084 60.2409668 620.18530273 C59.9109668 620.84530273 59.5809668 621.50530273 59.2409668 622.18530273 C58.67442383 621.58395508 58.67442383 621.58395508 58.09643555 620.97045898 C53.65388773 616.38225387 48.8899173 612.36512878 43.8894043 608.39624023 C41.2409668 606.18530273 41.2409668 606.18530273 38.5300293 603.41186523 C36.53424759 600.95288505 36.53424759 600.95288505 34.2409668 601.18530273 C33.96945801 601.71373779 33.69794922 602.24217285 33.41821289 602.78662109 C32.15629088 605.23489933 30.88721939 607.67935619 29.6159668 610.12280273 C29.1624585 610.99710938 28.7089502 611.87141602 28.24169922 612.7722168 C25.55195875 617.89416431 22.78834803 622.71248247 19.10424805 627.20092773 C17.14192315 631.71161121 19.5644591 638.19884748 20.39257812 642.94897461 C20.50334183 643.58604843 20.61410553 644.22312225 20.72822571 644.87950134 C21.09214884 646.97119419 21.45756625 649.06262298 21.82299805 651.15405273 C22.08112259 652.63592938 22.33915193 654.11782262 22.59709167 655.59973145 C23.27686752 659.50368293 23.95790529 663.40741322 24.63922119 667.31109619 C25.45141178 671.96608394 26.26211147 676.62133157 27.07288933 681.27656555 C27.72850197 685.04034835 28.38481629 688.8040059 29.04275513 692.56738281 C30.20334867 699.20866415 31.35769048 705.85070148 32.48461914 712.49780273 C32.66957443 713.58266968 32.85452972 714.66753662 33.04508972 715.78527832 C33.38202958 717.76526091 33.71581891 719.74578327 34.04585266 721.72692871 C34.40014059 725.78791776 34.40014059 725.78791776 36.2409668 729.18530273 C41.8280452 716.69970953 47.30909348 704.18326608 52.4284668 691.49780273 C56.75066742 680.78978855 61.18463712 670.13466596 65.6784668 659.49780273 C71.92684835 644.70187051 78.1302591 629.88776052 84.3034668 615.06030273 C84.72730652 614.04245697 85.15114624 613.02461121 85.58782959 611.97592163 C89.19782269 603.30616978 92.80567041 594.63552578 96.4128418 585.96459961 C102.78382604 570.65045326 109.15679651 555.3375148 115.6159668 540.06030273 C116.07495361 538.97442871 116.53394043 537.88855469 117.00683594 536.76977539 C120.11137295 529.44449044 120.11137295 529.44449044 121.2409668 527.18530273 C138.955027 529.37719402 156.18540163 537.3580189 172.92675781 543.35662842 C177.80015601 545.10169982 182.67548051 546.8413828 187.55055237 548.58177185 C191.92244519 550.14263524 196.2939344 551.70460856 200.66455078 553.26904297 C209.1792366 556.31554468 217.69740993 559.35123089 226.22808838 562.35270691 C230.24214372 563.76507542 234.25481004 565.18137085 238.26751709 566.5975647 C240.16997733 567.26761221 242.07314781 567.93564743 243.97711182 568.60140991 C253.64192162 571.98137881 263.22930815 575.48081929 272.68237305 579.41967773 C273.45725571 579.7400853 274.23213837 580.06049286 275.03050232 580.39060974 C281.48411085 583.13201016 286.95337239 586.55132539 292.2409668 591.18530273 C293.12655273 591.9497168 294.01213867 592.71413086 294.92456055 593.50170898 C325.88802043 622.2691788 335.44067726 666.93243784 338.9284668 707.24780273 C338.99544769 708.00635559 339.06242859 708.76490845 339.13143921 709.54644775 C339.32645404 711.79131756 339.51007693 714.0368482 339.69018555 716.28295898 C339.7967749 717.5875708 339.90336426 718.89218262 340.01318359 720.23632812 C340.34958927 727.5453093 340.2409668 734.86858389 340.2409668 742.18530273 C116.8309668 742.18530273 -106.5790332 742.18530273 -336.7590332 742.18530273 C-336.7590332 719.62732535 -336.7590332 719.62732535 -336.0090332 709.12280273 C-335.92177979 707.89819336 -335.83452637 706.67358398 -335.74462891 705.41186523 C-332.97505513 669.70389998 -326.2689123 631.50218461 -302.7590332 603.18530273 C-302.05004883 602.31260742 -301.34106445 601.43991211 -300.6105957 600.54077148 C-289.01810693 586.91855093 -274.82001296 580.06343963 -258.3215332 574.12280273 C-257.00776881 573.64554668 -255.6940493 573.16816705 -254.38037109 572.69067383 C-243.05858508 568.59177903 -231.67150732 564.68503187 -220.27368164 560.80371094 C-209.68543909 557.19745812 -199.12164146 553.52659783 -188.5715332 549.81030273 C-187.05021709 549.27480533 -185.52889547 548.73932359 -184.00756836 548.20385742 C-180.89725147 547.1088432 -177.78708138 546.01341308 -174.67700195 544.91772461 C-166.69273157 542.10501062 -158.70786263 539.29403316 -150.7203064 536.49066162 C-148.97685722 535.87829004 -147.2337051 535.26507194 -145.49087524 534.65093994 C-128.05881957 528.50866536 -128.05881957 528.50866536 -119.7590332 526.18530273 C-119.35289795 527.17820312 -118.9467627 528.17110352 -118.52832031 529.1940918 C-109.3034172 551.74038908 -100.00792766 574.25563297 -90.61791992 596.73364258 C-87.80682458 603.46397358 -85.00291012 610.19729681 -82.19836426 616.93035889 C-80.94480981 619.93962262 -79.69085624 622.94871998 -78.43692017 625.95782471 C-75.96495137 631.88993963 -73.49359015 637.82230647 -71.02368164 643.75527954 C-62.61644677 663.95019593 -54.18385742 684.13438503 -45.73057556 704.31007385 C-45.02550073 705.99389404 -44.32110362 707.6779982 -43.6174469 709.3624115 C-42.1346124 712.9110824 -40.64686287 716.45691507 -39.12719727 719.98999023 C-38.43835449 721.60260742 -38.43835449 721.60260742 -37.7355957 723.24780273 C-37.34710449 724.1462793 -36.95861328 725.04475586 -36.55834961 725.97045898 C-35.7590332 728.18530273 -35.7590332 728.18530273 -35.7590332 731.18530273 C-35.0990332 731.18530273 -34.4390332 731.18530273 -33.7590332 731.18530273 C-33.71172562 730.47300003 -33.66441803 729.76069733 -33.61567688 729.02680969 C-33.03948521 721.23031124 -31.95279411 713.61463043 -30.61450195 705.91577148 C-30.40344315 704.6777327 -30.19238434 703.43969391 -29.97492981 702.16413879 C-29.41623479 698.89271146 -28.85317223 695.62209986 -28.28790283 692.35180664 C-27.72692744 689.099694 -27.17205128 685.8465411 -26.61645508 682.59350586 C-24.95250333 672.86569909 -23.27697226 663.1399473 -21.57788086 653.41821289 C-21.39477859 652.36990799 -21.21167633 651.32160309 -21.02302551 650.24153137 C-20.68483823 648.30814215 -20.34563656 646.37492994 -20.00517273 644.44194031 C-19.71160411 642.76557752 -19.42415052 641.0881265 -19.14427185 639.40942383 C-18.79763993 637.40819323 -18.38743968 635.4182227 -17.96948242 633.43066406 C-17.70910395 629.41533801 -18.61883934 627.64854962 -20.65356445 624.20874023 C-21.2794043 623.12592773 -21.90524414 622.04311523 -22.55004883 620.92749023 C-23.55068359 619.26073242 -23.55068359 619.26073242 -24.5715332 617.56030273 C-25.8720619 615.34032454 -27.17032778 613.1190188 -28.46606445 610.89624023 C-29.048479 609.91961426 -29.63089355 608.94298828 -30.23095703 607.93676758 C-31.64023204 605.39921695 -32.75168411 602.90356597 -33.7590332 600.18530273 C-42.12301527 606.82285163 -49.98183555 613.87795168 -57.7590332 621.18530273 C-58.4190332 620.85530273 -59.0790332 620.52530273 -59.7590332 620.18530273 C-55.88549927 615.09824628 -52.01075802 610.01211553 -48.1340332 604.92749023 C-45.50427966 601.47793961 -42.87842971 598.02553545 -40.2590332 594.56811523 C-32.00764464 583.69513979 -23.54506744 573.00241048 -14.7199707 562.58764648 C-14.25034912 562.03181885 -13.78072754 561.47599121 -13.296875 560.90332031 C-12.03290697 559.4121991 -10.76147153 557.92741677 -9.48950195 556.44311523 C-7.55626113 554.39485218 -7.55626113 554.39485218 -7.7590332 552.18530273 C-24.77349138 543.92924724 -41.85787908 535.84906733 -59.02514648 527.91479492 C-65.8611773 524.75149096 -72.68419525 521.56016039 -79.5090332 518.37280273 C-80.84472092 517.74917412 -82.18041412 517.12555724 -83.51611328 516.50195312 C-86.597226 515.06336807 -89.67818076 513.62444512 -92.7590332 512.18530273 C-92.7590332 508.18530273 -92.7590332 508.18530273 -90.80981445 505.39624023 C-87.60904884 500.07721672 -87.9777229 493.93312421 -87.96289062 487.90698242 C-87.94659838 485.8186574 -87.86103088 483.74041161 -87.77270508 481.65405273 C-87.6651024 476.47597361 -87.60126202 471.90778717 -90.57397461 467.48510742 C-92.86304149 465.21792454 -95.25562214 463.21061952 -97.7590332 461.18530273 C-99.00395102 459.8717699 -100.21861531 458.52865747 -101.39575195 457.15405273 C-101.95568848 456.50178711 -102.515625 455.84952148 -103.0925293 455.17749023 C-144.7590332 405.36813309 -144.7590332 405.36813309 -144.7590332 385.18530273 C-145.7490332 385.14405273 -146.7390332 385.10280273 -147.7590332 385.06030273 C-156.62825082 383.75758063 -164.12292349 374.6448364 -169.5012207 368.04858398 C-185.56223142 346.25149801 -194.93908172 319.85016375 -191.2902832 292.69702148 C-189.61017064 284.82649416 -186.31495894 278.11371216 -180.03637695 272.94311523 C-177.39316723 270.30056941 -177.39316723 270.30056941 -177.56762695 266.45483398 C-177.74826789 264.96535345 -177.96033151 263.47948832 -178.1965332 261.99780273 C-178.35907593 260.76090698 -178.35907593 260.76090698 -178.52490234 259.49902344 C-178.90136497 256.72149187 -179.32395499 253.95423803 -179.7590332 251.18530273 C-179.91114258 250.21302734 -180.06325195 249.24075195 -180.2199707 248.23901367 C-180.5424607 246.18842668 -180.86580868 244.13797446 -181.18994141 242.08764648 C-186.65592405 207.40038891 -191.20686346 169.95384883 -183.7590332 135.18530273 C-183.58210937 134.31856934 -183.40518555 133.45183594 -183.22290039 132.55883789 C-176.8334824 101.72079201 -163.11691821 74.60537935 -140.7590332 52.18530273 C-140.06318115 51.46963135 -140.06318115 51.46963135 -139.35327148 50.73950195 C-125.67198979 36.76940873 -108.60349063 26.03400687 -90.7590332 18.18530273 C-90.01927246 17.85336914 -89.27951172 17.52143555 -88.51733398 17.17944336 C-68.84947941 8.45998694 -48.09269953 3.62938863 -26.7590332 1.18530273 C-25.97439697 1.09031494 -25.18976074 0.99532715 -24.38134766 0.89746094 C-16.26385229 0.02648504 -8.15470135 -0.0008223 0 0 Z " fill="#2C353D" transform="translate(855.759033203125,595.814697265625)"/>
<path d="M0 0 C2.26036162 -0.00317976 4.52072133 -0.0081105 6.78107578 -0.01463282 C12.96915239 -0.02741883 19.15696594 -0.01535551 25.34502518 0.00089574 C31.34037267 0.01272631 37.33567996 0.00569912 43.33102835 -0.00076268 C55.59029922 -0.01328882 67.84949299 -0.00699732 80.10875511 0.01042557 C92.24761864 0.02767337 104.38644752 0.03746544 116.52532387 0.0370903 C117.28131069 0.03707501 118.03729752 0.03705972 118.81619304 0.03704397 C121.88515372 0.03696214 124.95411439 0.03683092 128.02307506 0.03663234 C156.79389557 0.03482145 185.56466335 0.05469117 214.33546557 0.08549167 C239.88826829 0.11274633 265.44103357 0.12521382 290.99385071 0.12387085 C292.63508015 0.12379003 294.27630958 0.12370931 295.91753902 0.12362869 C297.13463822 0.12356764 297.13463822 0.12356764 298.37632529 0.12350535 C302.46093697 0.12330376 306.54554865 0.12312259 310.63016033 0.12296486 C311.8389505 0.12291472 311.8389505 0.12291472 313.07216067 0.12286357 C334.43629335 0.12213304 355.80042136 0.13121233 377.16455013 0.14361799 C377.92460915 0.14405853 378.68466818 0.14449907 379.46775929 0.14495297 C382.5239996 0.14672938 385.5802399 0.14850619 388.63648017 0.15033488 C399.26252387 0.15665034 409.88856388 0.15967282 420.51460932 0.16055786 C434.20684783 0.16175265 447.89905547 0.16975365 461.59128078 0.18942077 C468.19296094 0.19874 474.79461141 0.20474873 481.39629936 0.20223236 C487.43920214 0.20004066 493.48202098 0.20708907 499.52490626 0.22152941 C501.7110846 0.22515257 503.89727162 0.22542005 506.08345028 0.22199483 C509.05602604 0.21785316 512.02832824 0.22601522 515.00088024 0.23720741 C516.27226645 0.23104146 516.27226645 0.23104146 517.56933722 0.22475094 C532.64051718 0.32831541 544.1224314 5.34287378 554.97212219 15.83432007 C557.12867676 17.90863315 559.30726171 19.88375201 561.56587219 21.84213257 C566.41771784 26.05753023 571.07239919 30.46968377 575.73774719 34.88900757 C579.69950527 38.62636919 583.72774905 42.26272189 587.84028625 45.83334351 C590.6482528 48.29157875 593.38159743 50.82659319 596.11274719 53.36947632 C600.77607942 57.69311792 605.47470895 61.97266084 610.21040344 66.21713257 C613.06856923 68.79257407 615.90484981 71.39133396 618.73774719 73.99447632 C623.18836697 78.08368177 627.66852837 82.13816747 632.16743469 86.17416382 C636.03134326 89.66225149 639.85689279 93.19163833 643.68305969 96.72103882 C645.96438938 98.81022443 648.28525701 100.84866499 650.62055969 102.87728882 C654.66732143 106.40609575 658.58647966 110.05628695 662.48774719 113.74447632 C674.36114151 124.94937774 674.36114151 124.94937774 686.55024719 135.80697632 C692.43507701 140.91364682 698.0673501 146.30277401 703.74995422 151.63168335 C706.28986259 154.01187259 708.83442298 156.38704084 711.38008118 158.76107788 C712.61882707 159.91695853 713.85662041 161.07386085 715.09346008 162.23178101 C718.30014702 165.23214069 721.5212873 168.21430966 724.76899719 171.17025757 C733.65493139 179.28816454 742.09674447 187.12291988 746.73774719 198.49447632 C747.07938292 199.31495801 747.42101865 200.1354397 747.77300698 200.98078448 C749.04855909 205.62648803 749.01691228 209.93734229 748.99780941 214.73307705 C749.00161508 215.76710249 749.00542075 216.80112793 749.00934175 217.86648747 C749.01968752 221.34803843 749.01574578 224.82942725 749.01190186 228.31098938 C749.01635265 230.82573197 749.02166617 233.34047315 749.02777058 235.85521227 C749.03900964 241.33155836 749.0439833 246.80785549 749.0434494 252.28421211 C749.04265634 260.42814908 749.05320442 268.57204397 749.06586497 276.7159697 C749.0906108 292.95675828 749.09938858 309.19753665 749.10440146 325.43834149 C749.10466263 326.27957763 749.10492381 327.12081377 749.1051929 327.98754191 C749.10545317 328.83047078 749.10571345 329.67339964 749.10598161 330.54187181 C749.10906368 339.88220551 749.11556843 349.22253638 749.12219429 358.56286812 C749.14184411 386.77644557 749.15824692 414.99001996 749.16107082 443.2036047 C749.16116488 444.10615794 749.16125895 445.00871119 749.16135586 445.93861453 C749.16173434 449.59626807 749.16209833 453.25392161 749.16245884 456.91157515 C749.16273056 459.66455067 749.16300723 462.41752619 749.1632843 465.17050171 C749.16337232 466.08019189 749.16346035 466.98988207 749.16355104 467.92713862 C749.16645544 496.49982656 749.18854104 525.0724468 749.22480774 553.64511108 C749.26555181 585.74609211 749.28922953 617.847027 749.28953034 649.9480353 C749.28962716 653.37260442 749.28979388 656.79717352 749.29001045 660.22174263 C749.29005457 661.06495723 749.29009868 661.90817182 749.29014413 662.77693838 C749.29126317 676.33622218 749.30866034 689.89543809 749.33182977 703.45470004 C749.35469543 717.08941892 749.35888267 730.72404626 749.34428047 744.35877728 C749.33614116 752.45416812 749.3417766 760.54927022 749.36746132 768.64462593 C749.38511159 774.69728854 749.37647986 780.74961895 749.35781623 786.80229075 C749.35432274 789.24516469 749.35922516 791.68806863 749.37352066 794.13090324 C749.46837749 811.46154841 748.91441069 826.04054043 736.73774719 839.49447632 C735.97462219 840.54635132 735.21149719 841.59822632 734.42524719 842.68197632 C726.86525629 850.59359471 714.91787919 856.2788637 703.95722961 856.60800171 C702.50254878 856.60784482 701.04786138 856.60228137 699.59321594 856.59213257 C698.82342911 856.59071762 698.05364227 856.58930267 697.26052856 856.58784485 C694.81539431 856.58227238 692.37035351 856.56972503 689.92524719 856.55697632 C688.26183706 856.55195776 686.59842549 856.54739547 684.93501282 856.54330444 C680.86922191 856.53231197 676.80350037 856.51506642 672.73774719 856.49447632 C672.76131287 857.89971558 672.76131287 857.89971558 672.78535461 859.33334351 C672.8370138 862.86709318 672.87435141 866.40043159 672.90254211 869.93441772 C672.91746831 871.45303753 672.93781679 872.97161548 672.96406555 874.49008179 C673.2563564 891.85559684 670.39522701 906.17581573 658.16499329 919.22689819 C648.36757351 929.18333538 635.25453524 935.12847453 621.20205975 935.61752415 C619.81378962 935.62170365 618.42549627 935.62040201 617.03723145 935.61473083 C616.26933503 935.61558526 615.50143861 935.61643968 614.71027261 935.61732 C612.14152609 935.61896491 609.57284511 935.61346963 607.00410461 935.60800171 C605.16102602 935.6077196 603.31794731 935.60787804 601.47486877 935.60844421 C596.47324841 935.60873125 591.47165201 935.60284954 586.47003722 935.59587026 C581.24232463 935.58962124 576.0146115 935.58903169 570.78689575 935.58784485 C560.88829411 935.58473611 550.9897035 935.57652886 541.09110671 935.56649536 C529.82155734 935.55532005 518.55200743 935.54982019 507.28245389 935.54479992 C484.10087887 935.53434588 460.91931365 935.51675526 437.73774719 935.49447632 C437.68239807 934.76970093 437.62704895 934.04492554 437.57002258 933.29818726 C437.31385253 929.94691789 437.05705269 926.59569705 436.80024719 923.24447632 C436.71323547 922.10494507 436.62622375 920.96541382 436.53657532 919.79135132 C435.96628728 912.35648499 435.36708662 904.92457784 434.73774719 897.49447632 C435.70627184 897.49208797 436.67479649 897.48969961 437.67267036 897.48723888 C461.23334999 897.42845793 484.79392724 897.35258377 508.35449409 897.25876141 C519.74818624 897.21378589 531.14184701 897.17437524 542.53559875 897.14804077 C552.46578766 897.12507496 562.39587741 897.09169273 572.3259877 897.04577476 C577.58445261 897.0218235 582.8428192 897.00310717 588.10133743 896.99686241 C593.0507493 896.99082021 597.99990952 896.97085151 602.94922829 896.94020081 C604.76565492 896.93140673 606.58211442 896.92770083 608.39856148 896.92946815 C610.87968181 896.93111999 613.36003421 896.91442976 615.84104919 896.89320374 C616.55896137 896.89805131 617.27687355 896.90289889 618.01654065 896.90789336 C623.39360449 896.83203507 627.26656081 895.43612276 631.48774719 892.11947632 C634.58774981 888.08947292 634.9893288 884.09475352 634.99946022 879.13204479 C635.01065846 877.19427757 635.01065846 877.19427757 635.02208292 875.21736354 C635.02030618 873.78574233 635.01834529 872.35412134 635.01622009 870.92250061 C635.02122282 869.40025578 635.02709855 867.8780136 635.03377283 866.35577518 C635.04958963 862.17127917 635.05300443 857.98685028 635.05442142 853.80232799 C635.05811253 849.29042512 635.07326657 844.77855919 635.08703613 840.26667786 C635.10932186 832.44903131 635.12432725 824.63139788 635.13440323 816.81372643 C635.14898193 805.51065718 635.17451649 794.20763363 635.20273452 782.90459118 C635.2482172 764.56664506 635.28482591 746.22869237 635.31587219 727.89071655 C635.34605168 710.07592616 635.38039919 692.26115186 635.42036438 674.44638062 C635.42282593 673.34847986 635.42528748 672.2505791 635.42782362 671.11940863 C635.4401981 665.61162342 635.45265466 660.10383841 635.46515203 654.59605348 C635.56874194 608.89555019 635.6579379 563.19502691 635.73774719 517.49447632 C635.07774719 517.49447632 634.41774719 517.49447632 633.73774719 517.49447632 C633.53536438 518.02557007 633.33298157 518.55666382 633.12446594 519.10385132 C631.1337081 522.53580569 628.39465335 525.00589362 625.55024719 527.74447632 C621.33619383 531.82576487 617.35855745 536.00814775 613.52558899 540.45053101 C609.91793228 544.5749748 606.11100328 548.51693587 602.34321594 552.49447632 C598.59169385 556.47124507 594.93886433 560.5134799 591.35444641 564.64144897 C589.12783139 567.19354925 586.84344746 569.68967649 584.55024719 572.18197632 C584.0852179 572.68761108 583.6201886 573.19324585 583.1410675 573.71420288 C582.16351236 574.77664926 581.18548198 575.83865857 580.20698547 576.90023804 C578.76673351 578.4630239 577.32828873 580.02745638 575.89009094 581.59213257 C571.57757432 586.27850773 567.25278907 590.95236902 562.89009094 595.59213257 C562.23170227 596.29241577 561.5733136 596.99269897 560.89497375 597.71420288 C559.62352761 599.06507502 558.35083067 600.41477151 557.07661438 601.76303101 C553.46543703 605.59806601 549.96300083 609.50752098 546.50801086 613.48348999 C543.51103367 616.88799987 540.40799884 620.19128874 537.30024719 623.49447632 C536.64282532 624.19508179 535.98540344 624.89568726 535.30805969 625.61752319 C531.42132262 629.7467003 527.47393771 633.79692408 523.42915344 637.77182007 C520.98180302 640.26438713 518.72897006 642.91284972 516.45259094 645.56088257 C514.7777042 647.44942229 513.03827132 649.22603279 511.23774719 650.99447632 C508.82442002 653.36489989 506.56502866 655.8018394 504.36274719 658.36947632 C501.77140514 661.37915162 499.06519937 664.20536248 496.23774719 666.99447632 C491.47860342 671.69725121 487.1183564 676.67051479 482.80805969 681.78353882 C473.79404115 692.27066544 462.32236376 700.30697608 448.19081116 701.7555542 C445.573503 701.83761481 442.97308229 701.83304784 440.35493469 701.78744507 C439.41465424 701.78320023 438.47437378 701.77895538 437.50559998 701.77458191 C434.54100798 701.75796504 431.57712913 701.72034629 428.61274719 701.68197632 C426.58671543 701.66690746 424.56067288 701.65322294 422.53462219 701.64096069 C417.60206125 701.60811748 412.67002457 701.55645557 407.73774719 701.49447632 C407.75869446 702.15342896 407.77964172 702.81238159 407.80122375 703.49130249 C408.63768769 733.8078261 408.63768769 733.8078261 399.42134094 744.72494507 C391.42882884 753.12542762 382.34830401 759.09109643 370.45259094 759.64837646 C369.2060675 759.66123688 367.95954407 759.67409729 366.67524719 759.68734741 C365.98338821 759.6955249 365.29152924 759.70370239 364.57870483 759.71212769 C362.29839406 759.73685035 360.01814529 759.75346972 357.73774719 759.76791382 C356.56089859 759.77589933 356.56089859 759.77589933 355.36027527 759.78404617 C351.20209229 759.81072929 347.04393873 759.83011387 342.88569641 759.84457397 C339.46777822 759.85786791 336.05046345 759.88564235 332.63276672 759.92660522 C328.4836734 759.97631632 324.33512354 760.00074186 320.18574524 760.00780106 C318.61667436 760.01445277 317.04761267 760.02951296 315.47871399 760.05369186 C301.86950438 760.25135471 290.44997226 757.83751094 279.89009094 748.64682007 C271.65020004 740.40692917 267.69110605 730.33095537 267.57905579 718.74301147 C267.58974649 716.67312727 267.60896196 714.60327162 267.63618469 712.53353882 C267.64718201 710.93796143 267.64718201 710.93796143 267.65840149 709.31015015 C267.67741887 706.70476836 267.70406012 704.09970277 267.73774719 701.49447632 C266.51198471 701.51113091 266.51198471 701.51113091 265.26145935 701.52812195 C257.52393535 701.62870916 249.78673267 701.70463508 242.04872322 701.75353718 C238.07140618 701.7795245 234.09463372 701.81471998 230.11763 701.87167358 C226.27260435 701.92638652 222.42809926 701.95597836 218.58271408 701.96886253 C217.12278433 701.97803268 215.66287997 701.99593859 214.20317459 702.0231266 C205.30463437 702.18213074 198.35305201 701.49995256 190.73774719 696.49447632 C192.14508711 693.58867274 193.61397943 691.26627681 195.71430969 688.80697632 C196.30341125 688.10701538 196.89251282 687.40705444 197.49946594 686.68588257 C198.71639833 685.25464762 199.93507339 683.82489208 201.15571594 682.39682007 C201.75255188 681.68654663 202.34938782 680.97627319 202.96430969 680.24447632 C203.60465149 679.50745483 204.24499329 678.77043335 204.90473938 678.01107788 C206.88508039 675.51087682 206.88508039 675.51087682 208.0160675 672.28256226 C209.68905627 668.50689782 211.12690569 665.58324146 214.73774719 663.49447632 C223.64565862 661.40396905 233.17638441 662.37665485 242.23774719 662.74447632 C244.80272737 662.80469928 247.36784234 662.85944688 249.93305969 662.90853882 C256.20423772 663.04047757 262.47036992 663.2409528 268.73774719 663.49447632 C268.88252502 662.38910522 269.02730286 661.28373413 269.1764679 660.14486694 C270.47268097 651.71468954 276.22320617 644.0607959 282.83930969 638.83432007 C290.0685074 633.77885019 296.85332897 631.0327771 305.7233429 631.09042358 C306.8543895 631.08012871 306.8543895 631.08012871 308.00828552 631.06962585 C310.47689678 631.05147095 312.94486538 631.05517991 315.41352844 631.06088257 C317.14694421 631.05631441 318.88035816 631.05100696 320.61376953 631.04499817 C324.23907345 631.03608853 327.86415684 631.03846452 331.48945618 631.0484314 C336.10920537 631.05990159 340.72818793 631.03972877 345.34783649 631.01051426 C348.92634834 630.99206328 352.50467962 630.99246261 356.08322716 630.99815178 C357.78508261 630.998304 359.48695108 630.99234287 361.18876076 630.97986031 C374.40078585 630.89661164 386.45052332 632.35445657 396.73774719 641.49447632 C402.23747803 647.87069666 407.73774719 654.80344091 407.73774719 663.49447632 C413.1979111 663.67487906 418.65035155 663.76653115 424.11347961 663.78134155 C425.96507965 663.79822251 427.8166347 663.8380094 429.66719055 663.9024353 C441.45315502 664.47639862 441.45315502 664.47639862 451.81196594 659.65658569 C455.14092935 656.54044726 457.96491554 653.10258142 460.73774719 649.49447632 C461.93814434 648.11254248 463.14394675 646.73520687 464.36274719 645.36947632 C464.88095032 644.75846069 465.39915344 644.14744507 465.93305969 643.51791382 C468.71353565 640.40041047 471.71011213 637.50146069 474.68257141 634.56918335 C477.99872984 631.28049741 481.09788778 627.87259734 484.12837219 624.32260132 C486.27247269 621.88706969 488.57935493 619.64044975 490.89448547 617.36898804 C492.67503523 615.55825148 494.33998732 613.6929408 495.99555969 611.76791382 C499.60139892 607.62053131 503.33631771 603.61122639 507.11274719 599.61947632 C511.97520145 594.4571717 516.78736886 589.26100486 521.51118469 583.97103882 C525.69233985 579.32042063 529.95419557 574.74375138 534.20259094 570.15463257 C535.6852912 568.55120354 537.16520555 566.94526005 538.64399719 565.33822632 C548.02298111 555.14904504 557.49129995 545.04385056 567.00337219 534.97885132 C567.71074524 534.22958374 568.41811829 533.48031616 569.14692688 532.70834351 C570.49523746 531.28068349 571.84475721 529.854164 573.195755 528.42904663 C576.88419691 524.52285104 580.46088015 520.54220535 583.98286438 516.48568726 C586.94683474 513.12256228 590.03228153 509.87558082 593.11274719 506.61947632 C597.97141374 501.46119299 602.78090273 496.2700365 607.49946594 490.98275757 C610.72358468 487.39852784 614.0035848 483.86676756 617.27949524 480.32992554 C621.16377676 476.13073598 624.99630094 471.88780516 628.80024719 467.61557007 C630.73774719 465.49447632 630.73774719 465.49447632 632.82344055 463.8609314 C635.48420455 460.57170995 635.33126436 457.564353 635.30415344 453.51010132 C635.31035202 452.73567688 635.3165506 451.96125244 635.32293701 451.1633606 C635.33003053 449.5260239 635.32686919 447.88861501 635.31416321 446.25131226 C635.30036602 443.76588223 635.33428418 441.28427188 635.37251282 438.79916382 C635.55200904 428.32800758 635.55200904 428.32800758 631.49531555 418.89584351 C624.74747346 413.51556658 617.38751102 414.06468372 609.1401062 414.0957489 C607.74812634 414.09030604 606.35615109 414.08355306 604.96418327 414.075607 C601.14901581 414.05760352 597.33404321 414.05813605 593.51884329 414.06173646 C589.4009682 414.06236075 585.28315824 414.04573621 581.16531372 414.03121948 C574.0341398 414.00843454 566.90301473 413.99654855 559.77180672 413.99209023 C549.46132321 413.98562847 539.150928 413.96269062 528.84048008 413.93574693 C512.11199365 413.8924781 495.38351093 413.86251188 478.65498352 413.84091187 C462.4059415 413.81990247 446.15692989 413.79262771 429.90791321 413.75692749 C428.40522603 413.75362925 428.40522603 413.75362925 426.87218154 413.75026438 C421.84642781 413.73919474 416.82067436 413.72800193 411.79492104 413.71674788 C370.10922173 413.62356141 328.42350865 413.55278466 286.73774719 413.49447632 C286.73774719 401.28447632 286.73774719 389.07447632 286.73774719 376.49447632 C327.65774719 376.49447632 368.57774719 376.49447632 410.73774719 376.49447632 C413.34068047 346.39466007 413.34068047 346.39466007 405.73774719 319.49447632 C398.03527651 312.29434068 392.16598474 311.04889266 381.94917297 311.06210327 C380.76811478 311.05191162 379.58705658 311.04171997 378.37020874 311.03121948 C375.14539594 311.00626678 371.92085695 310.99437539 368.69596338 310.98836541 C365.3206504 310.97896197 361.94546811 310.95275706 358.57023621 310.92835999 C352.18496313 310.88474527 345.7997155 310.85616754 339.41433895 310.8330366 C332.14219506 310.80595787 324.87018298 310.76204808 317.59813333 310.71674788 C302.6447424 310.62397372 287.69131736 310.55226 272.73774719 310.49447632 C272.49325836 309.96080444 272.24876953 309.42713257 271.99687195 308.87728882 C270.86295129 306.41299408 269.71839735 303.95377544 268.57368469 301.49447632 C268.1894635 300.65529663 267.80524231 299.81611694 267.40937805 298.95150757 C263.50929321 290.6097717 258.5850682 282.23596062 251.94868469 275.74447632 C250.73774719 274.49447632 250.73774719 274.49447632 250.73774719 272.49447632 C269.28847017 272.42421748 287.83916592 272.37140579 306.38999462 272.3390398 C315.00457408 272.32360845 323.6190706 272.30259081 332.2335968 272.26815796 C339.74701554 272.23814077 347.26037417 272.21887423 354.77385122 272.21221083 C358.74765776 272.20831932 362.72129242 272.19925275 366.69504356 272.17728615 C370.44527205 272.15672568 374.19525998 272.15068141 377.94553947 272.15515327 C379.95767686 272.15395122 381.96978883 272.13791251 383.9818573 272.12121582 C395.22079293 272.15891322 405.89272866 273.8685421 415.92524719 279.11947632 C416.59741272 279.46575073 417.26957825 279.81202515 417.96211243 280.16879272 C431.69362004 287.5382055 441.82119904 300.34960796 446.60342407 315.17886353 C448.56907048 322.58732921 449.14076423 329.39745062 449.03071594 337.04135132 C449.0264711 338.17856628 449.02222626 339.31578125 449.01785278 340.48745728 C449.00123441 344.07338459 448.96361427 347.65872262 448.92524719 351.24447632 C448.91017858 353.69498896 448.89649402 356.14551053 448.88423157 358.59603882 C448.85138634 364.56238129 448.80135843 370.52838669 448.73774719 376.49447632 C449.65951122 376.49078915 450.58127525 376.48710197 451.53097153 376.48330307 C473.99208171 376.39484473 496.45316173 376.32871451 518.91440964 376.28722763 C529.77664712 376.26663 540.6387681 376.23856299 551.50093079 376.19271851 C560.97186147 376.15276497 570.44270775 376.12702317 579.91372037 376.11812234 C584.92542808 376.11292201 589.93689438 376.10075788 594.94852448 376.07155609 C599.6730368 376.0442523 604.39721001 376.03606137 609.12179375 376.04204559 C610.8486586 376.04095202 612.57553569 376.03308773 614.30233192 376.01765442 C631.32342527 375.87308735 644.60575288 379.66532886 657.36274719 391.36947632 C670.32609992 404.82929788 673.04986004 420.52704028 672.97825623 438.61045837 C672.97912916 440.25164749 672.98088177 441.89283634 672.98343456 443.5340237 C672.98789473 448.02874874 672.97992272 452.523378 672.96987844 457.01809084 C672.96122704 461.87073864 672.96416529 466.72338121 672.96568298 471.57603455 C672.96673076 479.9785801 672.96046531 488.38109455 672.94920731 496.78363228 C672.93294081 508.93222965 672.92774312 521.08081202 672.92523132 533.2294191 C672.92085603 552.94058277 672.9075514 572.65172986 672.8886261 592.36288452 C672.87026302 611.50839149 672.85610861 630.65389396 672.84761047 649.79940796 C672.8468223 651.57013657 672.8468223 651.57013657 672.84601821 653.37663747 C672.8434081 659.29889394 672.84088069 665.22115046 672.8383944 671.14340699 C672.81766706 720.26044155 672.78244602 769.37745812 672.73774719 818.49447632 C676.91923596 818.42538919 681.09977473 818.3373239 685.2804718 818.23202515 C686.70125921 818.19887074 688.12217532 818.1708094 689.54316711 818.14804077 C691.59165539 818.11431785 693.6389744 818.06199887 695.68696594 818.00619507 C696.9176178 817.98001099 698.14826965 817.9538269 699.41621399 817.92684937 C704.03925369 817.32505566 706.49083851 815.93550207 709.5264774 812.427279 C711.29937211 808.13463471 711.15093697 804.17165799 711.11806393 799.56963348 C711.1250538 798.05128799 711.1250538 798.05128799 711.13218489 796.50226885 C711.14419609 793.08885619 711.1347157 789.67583708 711.12542725 786.26242065 C711.12959746 783.79916055 711.13507325 781.33590236 711.14174706 778.87264776 C711.15322581 773.50593263 711.15531736 768.13933443 711.14919662 762.77261925 C711.14011925 754.79224812 711.1481265 746.81195807 711.15948786 738.83159317 C711.17917571 724.58003747 711.18149818 710.32851811 711.17629266 696.07695206 C711.17173941 683.60533796 711.17232977 671.13373826 711.17813301 658.66212463 C711.17888987 656.99064019 711.17964585 655.31915575 711.18040096 653.64767131 C711.18154612 651.12905199 711.182696 648.61043266 711.1838602 646.09181335 C711.19456851 622.66970032 711.19928699 599.2475921 711.19139004 575.8254776 C711.19109286 574.9421662 711.19079569 574.05885479 711.19048951 573.14877638 C711.18804045 565.97517765 711.18542893 558.80157898 711.18280538 551.62798031 C711.17270084 523.63960855 711.18106094 495.65129675 711.20429993 467.66293335 C711.23035383 436.23336105 711.24322557 404.80382486 711.23611218 373.37424135 C711.23539609 370.02510358 711.2347217 366.67596579 711.23407173 363.326828 C711.23381702 362.08982117 711.23381702 362.08982117 711.23355716 360.82782431 C711.23125124 348.36262463 711.23924503 335.89745841 711.2523632 323.43226624 C711.26724915 309.26183467 711.26815158 295.0914817 711.25029229 280.92105186 C711.24070385 272.98579663 711.24221577 265.05072452 711.25952698 257.11548137 C711.27120009 251.19977015 711.26209742 245.28421244 711.24470461 239.36851102 C711.24091365 236.96818447 711.24395454 234.56783599 711.25431626 232.16752881 C711.26735322 228.91778195 711.25602134 225.6690222 711.23831844 222.41931915 C711.25279421 221.00447427 711.25279421 221.00447427 711.26756242 219.56104666 C711.22043666 215.38010206 711.09240777 213.08265859 708.89396149 209.43667364 C705.36606127 206.25893831 702.35873 206.36847952 697.79438782 206.36317444 C696.55245163 206.35916626 695.31051544 206.35515808 694.03094482 206.35102844 C692.65196226 206.35150355 691.27297971 206.35203967 689.89399719 206.35263062 C688.44343968 206.34959879 686.99288312 206.34607727 685.54232788 206.34210205 C682.41574497 206.33421165 679.28917349 206.32906747 676.1625824 206.32581139 C671.21095805 206.31989609 666.25940541 206.30334862 661.30781555 206.2844696 C659.61132817 206.27813194 657.91484074 206.27180632 656.21835327 206.26549244 C655.36862505 206.26232663 654.51889683 206.25916082 653.64341927 206.25589907 C642.11644383 206.2138687 630.58950114 206.18087627 619.06245422 206.16854858 C611.28708761 206.16014774 603.51189801 206.13757921 595.73661995 206.09919292 C591.62543345 206.07949392 587.51451121 206.06700694 583.40327454 206.07202721 C579.52893862 206.07670024 575.655102 206.06272493 571.78086662 206.03501511 C570.36645077 206.02814666 568.95198281 206.02792946 567.53756905 206.03521538 C552.89612098 206.10296015 541.32634783 202.05514995 530.25727844 192.31088257 C521.78320396 183.66647493 516.60552799 172.22584596 516.61749268 160.03382874 C516.61611801 158.9499437 516.61474335 157.86605865 516.61332703 156.74932861 C516.6169223 155.57041046 516.62051758 154.39149231 516.6242218 153.17684937 C516.62407578 151.9276622 516.62392975 150.67847504 516.6237793 149.39143372 C516.62435584 145.9744596 516.62936495 142.55754618 516.63635325 139.1405828 C516.64261214 135.56647658 516.6431926 131.99236952 516.64437866 128.41825867 C516.6474845 121.65396765 516.65568782 114.88969284 516.66572815 108.12540895 C516.67691249 100.42290249 516.68240559 92.72039526 516.68742359 85.0178827 C516.69787105 69.17673787 516.71545603 53.33560918 516.73774719 37.49447632 C466.00784801 37.52138821 415.27795444 37.5530611 364.54808044 37.6111145 C363.42223779 37.61240077 363.42223779 37.61240077 362.27365085 37.61371301 C345.96276248 37.63237771 329.6518753 37.65193012 313.34098911 37.67239727 C305.34238263 37.68242864 297.34377591 37.6922638 289.34516907 37.70199585 C288.54920247 37.70296766 287.75323587 37.70393946 286.93314906 37.70494072 C261.1236251 37.73635992 235.3141116 37.7548175 209.50457182 37.76656878 C182.98665546 37.77871094 156.46878283 37.80389895 129.95089562 37.84555246 C126.20727071 37.85142673 122.46364558 37.85715154 118.72002029 37.86278534 C117.98320563 37.8638988 117.24639096 37.86501226 116.48724857 37.86615946 C104.61631667 37.88371387 92.74541835 37.88747514 80.87447521 37.88610553 C68.94636273 37.88502269 57.01833648 37.89840637 45.09025674 37.9266406 C38.62481317 37.94133356 32.15953212 37.9494493 25.69407463 37.94027901 C19.77968368 37.93203194 13.86562019 37.942037 7.95127799 37.96681294 C5.80718188 37.97252751 3.66305506 37.97143372 1.51896797 37.96298876 C-1.3877205 37.95251752 -4.29329402 37.96646248 -7.1999073 37.98666763 C-8.03926134 37.97776392 -8.87861538 37.96886021 -9.74340439 37.9596867 C-16.29588361 38.04752494 -19.89570471 40.16657463 -24.60481644 44.79878521 C-26.73901462 48.26989226 -26.76937836 50.56175793 -26.78123474 54.62553406 C-26.79248662 55.68549875 -26.79248662 55.68549875 -26.80396581 56.76687688 C-26.82422412 59.1286069 -26.81614451 61.48937515 -26.80815125 63.85116577 C-26.81688732 65.54647266 -26.82737322 67.24177131 -26.83947754 68.9370575 C-26.86735411 73.53585383 -26.87074186 78.13438134 -26.86975765 82.7332499 C-26.87288533 87.54061683 -26.89850051 92.34786242 -26.92173767 97.15516663 C-26.96231234 106.25690209 -26.98264184 115.35856589 -26.99571157 124.46037787 C-27.01157663 134.82311795 -27.04999019 145.18573597 -27.09030485 155.54840529 C-27.17272387 176.86372205 -27.22680348 198.1790331 -27.26225281 219.49447632 C-27.82294464 219.79529617 -28.38363647 220.09611603 -28.96131897 220.40605164 C-31.55195693 221.80049919 -34.13755163 223.20406335 -36.72319031 224.60775757 C-38.04564758 225.3169635 -38.04564758 225.3169635 -39.39482117 226.04049683 C-45.91668135 229.59282279 -51.89446737 233.58247171 -57.75712585 238.1335144 C-62.09588331 241.49447632 -62.09588331 241.49447632 -64.26225281 241.49447632 C-64.35577331 215.47734495 -64.4262699 189.46023885 -64.4695015 163.44297314 C-64.49010992 151.36218325 -64.51819775 139.28149792 -64.56401062 127.20077515 C-64.6039309 116.66887395 -64.62969812 106.1370485 -64.63860679 95.60507375 C-64.6438127 90.03058291 -64.65601289 84.45630872 -64.68517303 78.88188744 C-64.71242403 73.62962831 -64.72067821 68.37767406 -64.71468353 63.12535095 C-64.71577944 61.20294854 -64.72367533 59.2805354 -64.73907471 57.35819435 C-64.86666286 40.60208711 -61.84370215 27.45548185 -50.01225281 14.74447632 C-35.07709803 0.90456623 -19.28016836 -0.09839477 0 0 Z " fill="#2D363D" transform="translate(779.2622528076172,376.5055236816406)"/>
<path d="M0 0 C1.46139108 -0.00504938 2.92277596 -0.01228124 4.38414669 -0.02149814 C8.3869935 -0.04039206 12.3892277 -0.02820318 16.39205885 -0.01077521 C20.7138892 0.00261118 25.03563065 -0.01284285 29.35745239 -0.02459717 C37.81876567 -0.04296864 46.27984789 -0.03446475 54.74115396 -0.01650894 C61.61829524 -0.0024788 68.49537385 0.00140896 75.37252808 -0.00195122 C76.35161225 -0.00242866 77.33069643 -0.0029061 78.33944982 -0.00339801 C80.32848972 -0.00442435 82.31752959 -0.00547971 84.30656946 -0.00656378 C101.8916817 -0.01512985 119.47668246 0.00154114 137.06176758 0.03126526 C154.12236209 0.06010241 171.182796 0.06718607 188.2434082 0.05177307 C206.82482238 0.03500911 225.40616032 0.03097871 243.98757648 0.04848343 C245.96926688 0.0503278 247.95095729 0.05216253 249.93264771 0.0539875 C250.90765714 0.05489959 251.88266658 0.05581168 252.88722175 0.05675141 C259.7554652 0.06235559 266.62367141 0.05905073 273.49191284 0.05244255 C281.86293471 0.04470819 290.23379852 0.05146567 298.60478854 0.07661759 C302.87517603 0.08911024 307.14531747 0.09526203 311.41571426 0.08407593 C315.32655742 0.07402514 319.23691021 0.08251068 323.14769375 0.10565711 C324.56076913 0.11081056 325.97388855 0.10926503 327.38694465 0.10026246 C335.6785001 0.05184041 342.83951093 0.01487171 349.16246128 6.07539743 C353.15381479 10.6154455 355.2043711 14.18470679 355.03149414 20.33912659 C354.18861289 25.43117207 351.852651 30.53262897 348.09008789 34.11647034 C343.70490242 37.13128535 339.93937801 37.75377669 334.74042034 37.76241016 C333.49805856 37.76686801 332.25569679 37.77132585 330.97568768 37.77591878 C329.58947924 37.77582948 328.2032708 37.77563962 326.81706238 37.77536011 C325.35031945 37.77865871 323.88357742 37.78238427 322.41683656 37.78650159 C318.37623664 37.7965299 314.33565157 37.80023971 310.29504097 37.8028909 C305.9411486 37.80679141 301.58726803 37.81636983 297.23338318 37.82510376 C286.71468031 37.84487392 276.19597646 37.85493446 265.67725965 37.86383155 C260.72643675 37.86821299 255.77561492 37.87358012 250.82479286 37.87882042 C234.37225027 37.89583221 217.91970835 37.91032755 201.46715832 37.91756916 C197.19685554 37.91947912 192.92655276 37.92139944 188.65625 37.9233551 C187.59486151 37.92383884 186.53347302 37.92432258 185.43992124 37.92482098 C168.2367052 37.93312565 151.03355859 37.95847015 133.83037289 37.99093578 C116.17719382 38.0239797 98.52405007 38.04201545 80.87083989 38.0452134 C70.95552313 38.04738083 61.04030766 38.05616355 51.12502098 38.08167458 C42.68285054 38.10334505 34.24080599 38.11144999 25.79861089 38.10170779 C21.49000636 38.09715264 17.18166179 38.09911961 12.87309265 38.11846924 C8.92949827 38.13602715 4.98635492 38.13516368 1.04275624 38.11957195 C-0.38457852 38.11718462 -1.8119439 38.12157749 -3.23923168 38.1334006 C-16.45666031 38.23611521 -16.45666031 38.23611521 -21.34741211 33.62818909 C-26.33615399 28.22371872 -27.90256543 23.46645565 -27.71850586 16.19068909 C-26.98906085 11.15367931 -24.69761669 7.69415719 -20.91870785 4.37227398 C-14.40843005 -0.43382527 -7.80642442 -0.0710304 0 0 Z " fill="#2C343C" transform="translate(854.347412109375,498.37181091308594)"/>
<path d="M0 0 C2.24559618 1.21473679 4.38999794 2.52517614 6.53857422 3.90429688 C7.32578857 4.39945801 8.11300293 4.89461914 8.92407227 5.40478516 C16.56266256 10.32806812 23.3621814 15.94307342 29.97607422 22.15429688 C30.54197266 22.67781738 31.10787109 23.20133789 31.69091797 23.74072266 C46.91946089 37.9289938 60.00294166 56.66036458 64.97607422 77.15429688 C65.15509277 77.87069336 65.33411133 78.58708984 65.51855469 79.32519531 C68.69164012 92.56914513 69.41468959 105.72103843 69.53857422 119.27929688 C69.55319702 120.07932129 69.56781982 120.8793457 69.58288574 121.70361328 C69.61844039 124.00320787 69.61771561 126.29982964 69.60498047 128.59960938 C69.6180574 129.28830109 69.63113434 129.9769928 69.64460754 130.68655396 C69.57230865 134.47327117 69.0471884 136.06551805 66.65161133 139.05615234 C63.24711698 141.72594196 61.30064163 142.30603608 56.97607422 142.15429688 C54.40305789 140.52840191 52.80391101 139.48196572 50.97607422 137.15429688 C50.3993675 134.21699426 50.20277069 132.0932366 50.27685547 129.16992188 C50.27026413 128.3960614 50.26367279 127.62220093 50.25688171 126.82489014 C50.23944952 124.35048143 50.26125408 121.87858312 50.28857422 119.40429688 C50.43337152 88.68878389 43.6114508 61.62016532 21.85107422 38.59179688 C14.7349906 31.71459239 5.86428734 24.59840344 -3.02392578 20.15429688 C-6.32471818 21.25456101 -6.9487286 21.98139025 -9.08642578 24.59179688 C-21.42515116 39.04278839 -35.76378837 49.58358402 -52.02392578 59.15429688 C-52.61866699 59.50733887 -53.2134082 59.86038086 -53.82617188 60.22412109 C-65.29079918 66.94210327 -77.5909998 71.55438227 -90.02392578 76.15429688 C-91.14669922 76.57710937 -92.26947266 76.99992188 -93.42626953 77.43554688 C-106.62821942 82.13294081 -120.6395169 84.84636372 -134.39892578 87.34179688 C-135.22110596 87.49648438 -136.04328613 87.65117188 -136.89038086 87.81054688 C-158.37100946 91.52978623 -180.18122627 91.50374039 -201.90893555 91.6105957 C-205.60504662 91.63217987 -209.30064732 91.67151958 -212.99658203 91.71289062 C-214.11839371 91.71300644 -215.24020538 91.71312225 -216.39601135 91.71324158 C-223.57696554 91.80477306 -228.16504363 92.56768922 -233.64892578 97.52929688 C-240.40382788 106.55035968 -240.53189978 117.77066787 -240.52099609 128.55078125 C-240.6067809 135.47729124 -240.6067809 135.47729124 -242.93017578 139.24804688 C-245.62960869 141.70573953 -246.66241391 142.10655002 -250.33642578 142.59179688 C-254.02392578 142.15429688 -254.02392578 142.15429688 -256.72314453 139.77929688 C-260.05908858 135.46880737 -259.69558604 130.96097278 -259.52392578 125.71679688 C-259.50475098 124.74049316 -259.48557617 123.76418945 -259.46582031 122.75830078 C-259.03357505 108.55962793 -256.71798706 94.24790679 -246.89892578 83.27929688 C-239.69935575 76.7225456 -230.53214504 73.06804185 -220.86767578 72.99658203 C-219.35539398 72.98097733 -219.35539398 72.98097733 -217.81256104 72.96505737 C-216.18468658 72.95431686 -216.18468658 72.95431686 -214.52392578 72.94335938 C-212.18244547 72.91779972 -209.84097421 72.89140064 -207.49951172 72.86425781 C-206.27776245 72.85100464 -205.05601318 72.83775146 -203.79724121 72.82409668 C-168.19649585 72.40141629 -131.99528498 70.98187938 -98.02392578 59.15429688 C-97.2235791 58.8774707 -96.42323242 58.60064453 -95.59863281 58.31542969 C-64.54129569 47.40259518 -34.42220508 31.14465774 -15.10205078 3.69335938 C-11.1004727 -1.19578678 -6.07887057 -2.5400733 0 0 Z " fill="#EBEDE8" transform="translate(951.02392578125,732.845703125)"/>
<path d="M0 0 C3.32764294 1.58790649 5.71493319 3.36821842 8.4375 5.875 C9.31921875 6.68324219 10.2009375 7.49148438 11.109375 8.32421875 C12.06328125 9.20722656 13.0171875 10.09023438 14 11 C15.00487001 11.92354534 16.01008605 12.84671429 17.015625 13.76953125 C23.587036 19.80970201 30.10798662 25.90329026 36.62597656 32.00097656 C40.03247792 35.18213829 43.46014885 38.33355569 46.9375 41.4375 C52.00436889 45.96569844 56.94869306 50.62022665 61.89941406 55.27441406 C67.70122962 60.72708417 73.54240597 66.13524566 79.40136719 71.52636719 C81.0751002 73.06922798 82.74498566 74.61616651 84.4140625 76.1640625 C90.20301892 81.52965859 96.03241771 86.83294704 102 92 C103.66991554 93.45461197 105.33653754 94.91301281 107 96.375 C107.763125 97.04273438 108.52625 97.71046875 109.3125 98.3984375 C109.869375 98.92695312 110.42625 99.45546875 111 100 C111 100.33 111 100.66 111 101 C97.39618575 101.13896073 83.79254007 101.2456018 70.1881609 101.31087303 C63.87119814 101.34219859 57.55472059 101.38469565 51.23803711 101.45263672 C45.14314182 101.51778275 39.04871349 101.55369681 32.95349693 101.56926346 C30.62699722 101.58035813 28.30052334 101.60202352 25.97422218 101.63438034 C22.71768401 101.67787846 19.46308031 101.6839366 16.20629883 101.68115234 C15.24244766 101.702724 14.2785965 101.72429565 13.28553772 101.746521 C6.91816655 101.68753585 6.91816655 101.68753585 4.29587364 99.72392654 C-0.19095558 94.55739423 -0.14098799 89.70290146 -0.11352539 83.21411133 C-0.11374443 81.86746147 -0.11374443 81.86746147 -0.1139679 80.49360657 C-0.11327064 77.52305697 -0.10548697 74.55256991 -0.09765625 71.58203125 C-0.09579141 69.52365656 -0.09436782 67.46528142 -0.09336853 65.40690613 C-0.08954859 59.98669206 -0.07972273 54.56650476 -0.06866455 49.14630127 C-0.05843921 43.61641807 -0.0538685 38.08653055 -0.04882812 32.55664062 C-0.03810003 21.70441532 -0.02102984 10.85220989 0 0 Z " fill="#ECECE7" transform="translate(1333,443)"/>
<path d="M0 0 C7.18531688 5.87487999 10.7560691 13.37359388 12.6875 22.3125 C13.05323301 26.03415665 13.06477992 29.70099417 13 33.4375 C13.00322266 34.37464844 13.00644531 35.31179688 13.00976562 36.27734375 C12.92414193 47.40842366 10.09775712 57.32463985 2.515625 65.7109375 C-6.2251875 73.36848691 -17.32711819 74.82401664 -28.49609375 74.61328125 C-39.46571087 73.7487362 -47.06936949 69.55239158 -54.3125 61.3125 C-62.48328586 50.3155835 -62.24663225 36.44723782 -61.3125 23.3125 C-59.74076098 13.35405982 -54.23345599 4.52934593 -46.3125 -1.6875 C-32.11135646 -9.73969479 -13.4791994 -9.09592591 0 0 Z " fill="#F0F1ED" transform="translate(856.3125,1809.6875)"/>
<path d="M0 0 C8.48699175 5.71844316 13.83143079 13.39678479 16.640625 23.24609375 C17.18713587 27.43403032 17.18439547 31.59344416 17.1875 35.8125 C17.19974609 36.67681641 17.21199219 37.54113281 17.22460938 38.43164062 C17.24924234 49.31119945 14.32296596 59.59651837 6.875 67.8125 C-1.60649186 75.64584292 -12.11369992 77.31147585 -23.23828125 77.14453125 C-32.51221557 76.65919098 -40.3312214 73.57967977 -47.046875 66.9921875 C-56.44257034 55.78962767 -57.83509637 42.13590396 -57 28 C-55.86204727 20.44650274 -53.7563817 14.02040642 -49 8 C-48.51917969 7.38382813 -48.03835938 6.76765625 -47.54296875 6.1328125 C-36.25616019 -6.66439623 -14.54550779 -7.82404136 0 0 Z " fill="#F0F1ED" transform="translate(1140,1807)"/>
<path d="M0 0 C1.18408447 0.01522705 1.18408447 0.01522705 2.39208984 0.03076172 C13.44064617 0.32396554 20.78493698 3.3871627 28.8125 10.96875 C37.68120951 20.36958208 38.59039353 32.2059366 38.40234375 44.45703125 C37.98458179 55.27519555 34.20968274 65.63116049 26.2421875 73.15234375 C18.67246288 79.22296604 11.31986784 80.92168127 1.8125 80.8125 C0.42091675 80.80005249 0.42091675 80.80005249 -0.9987793 80.78735352 C-10.84119131 80.54468283 -18.80106053 78.49598865 -26.08984375 71.56640625 C-29.55655867 67.31076715 -31.78716642 62.42170601 -33.875 57.375 C-34.25140625 56.48296875 -34.6278125 55.5909375 -35.015625 54.671875 C-37.92861894 43.49657099 -37.53604615 28.53313888 -31.875 18.375 C-31.45089844 17.570625 -31.02679687 16.76625 -30.58984375 15.9375 C-24.03896221 4.84297082 -12.54333479 -0.2338269 0 0 Z " fill="#F0F1ED" transform="translate(1300.875,1802.625)"/>
<path d="M0 0 C1.88700623 -0.00472824 1.88700623 -0.00472824 3.81213379 -0.009552 C5.19571975 -0.00776222 6.5793054 -0.00571127 7.96289062 -0.00341797 C9.37154151 -0.00409106 10.78019229 -0.00506112 12.18884277 -0.00631714 C15.14462385 -0.00779389 18.10037476 -0.0056403 21.05615234 -0.00097656 C24.85288647 0.00472073 28.64954991 0.0014416 32.44628143 -0.00454903 C35.35610491 -0.00815526 38.2659115 -0.00701577 41.17573547 -0.00442123 C42.57603463 -0.00375214 43.9763353 -0.00457979 45.37663269 -0.00690079 C47.33051526 -0.00942829 49.28440318 -0.0048958 51.23828125 0 C52.35223267 0.00079559 53.46618408 0.00159119 54.6138916 0.00241089 C57.11914062 0.12939453 57.11914062 0.12939453 58.11914062 1.12939453 C58.2228109 2.68390441 58.25765584 4.24307708 58.2644043 5.80102539 C58.27078415 6.79553207 58.277164 7.79003876 58.28373718 8.81468201 C58.28485001 9.89693558 58.28596283 10.97918915 58.28710938 12.09423828 C58.29210197 13.74970421 58.29210197 13.74970421 58.29719543 15.43861389 C58.30226948 17.77816347 58.30460361 20.11772032 58.30444336 22.45727539 C58.30662911 26.04797219 58.32477797 29.63836158 58.34375 33.22900391 C58.34668389 35.49658097 58.34866872 37.76415951 58.34960938 40.03173828 C58.35679489 41.11196762 58.36398041 42.19219696 58.37138367 43.30516052 C58.36830704 44.30281937 58.36523041 45.30047821 58.36206055 46.32836914 C58.36348557 47.20915634 58.36491058 48.08994354 58.36637878 48.99742126 C58.11914062 51.12939453 58.11914062 51.12939453 56.11914062 53.12939453 C53.52487183 53.36990356 53.52487183 53.36990356 50.20068359 53.35644531 C48.95954803 53.35629425 47.71841248 53.35614319 46.43966675 53.35598755 C45.08021892 53.34577353 43.72077272 53.33534153 42.36132812 53.32470703 C40.97413333 53.32097737 39.58693591 53.31813018 38.19973755 53.31613159 C34.54674012 53.30849137 30.89390145 53.28883969 27.2409668 53.26672363 C23.51418201 53.24627349 19.78737159 53.23713167 16.06054688 53.22705078 C8.74667237 53.20559404 1.43292873 53.17145356 -5.88085938 53.12939453 C-7.10807362 50.67496605 -7.00777545 49.07221939 -7.01025391 46.32836914 C-7.01340607 45.3307103 -7.01655823 44.33305145 -7.01980591 43.30516052 C-7.01778168 42.22493118 -7.01575745 41.14470184 -7.01367188 40.03173828 C-7.01510696 38.37483727 -7.01510696 38.37483727 -7.01657104 36.6844635 C-7.01725238 34.34668928 -7.01540134 32.00891318 -7.01123047 29.67114258 C-7.00587653 26.07840765 -7.01117967 22.48579745 -7.01757812 18.89306641 C-7.01691744 16.62679009 -7.01563646 14.36051385 -7.01367188 12.09423828 C-7.01569611 11.01198471 -7.01772034 9.92973114 -7.01980591 8.81468201 C-7.01665375 7.82017532 -7.01350159 6.82566864 -7.01025391 5.80102539 C-7.00945831 4.92103378 -7.00866272 4.04104218 -7.00784302 3.13438416 C-6.738015 -1.12602573 -3.57712294 0.00255481 0 0 Z " fill="#EAEBE6" transform="translate(1091.880859375,1044.87060546875)"/>
<path d="M0 0 C40.44444444 0 40.44444444 0 49 7 C54.09303537 13.03158931 55.43715476 17.88959221 55.33203125 25.79296875 C54.6894811 31.99924725 52.48846632 36.91934255 47.6640625 40.953125 C45.48887582 42.42154756 43.31212605 43.76082133 41 45 C45.32048315 53.26197655 50.09325707 61.22428547 54.94824219 69.18066406 C55.45645508 70.01823242 55.96466797 70.85580078 56.48828125 71.71875 C56.94759033 72.47091797 57.40689941 73.22308594 57.88012695 73.99804688 C59 76 59 76 60 79 C54.72 79 49.44 79 44 79 C35.015625 63.27734375 35.015625 63.27734375 33.45507812 60.53857422 C32.55142364 58.9620307 31.64006884 57.38984273 30.71679688 55.82470703 C28 51.20447531 28 51.20447531 28 49 C23.71 49 19.42 49 15 49 C15 58.9 15 68.8 15 79 C10.05 79 5.1 79 0 79 C0 52.93 0 26.86 0 0 Z " fill="#EDEEEB" transform="translate(885,1804)"/>
<path d="M0 0 C2.69266987 0.99232968 3.78092105 1.53162432 5.01953125 4.1796875 C5.41205078 5.51386719 5.41205078 5.51386719 5.8125 6.875 C11.18917591 22.83766038 21.16438284 33.53057693 36 41.125 C40.28778022 43.18244293 44.63952054 45.10238394 49 47 C48.265625 48.92578125 48.265625 48.92578125 47 51 C45.109375 51.73046875 45.109375 51.73046875 42.75 52.1875 C28.59998154 55.96083826 17.10403522 66.80258043 9.59375 78.97265625 C7.31578845 83.29966655 5.74144486 87.79917042 4.23828125 92.4453125 C3 95 3 95 0.85546875 95.8671875 C0.24316406 95.91101562 -0.36914062 95.95484375 -1 96 C-1.18433594 95.29617188 -1.36867188 94.59234375 -1.55859375 93.8671875 C-6.51069021 77.00805021 -16.68691999 64.50726667 -32 56 C-36.93141679 53.51772676 -41.95489609 51.2399989 -47 49 C-47 48.01 -47 47.02 -47 46 C-46.20078125 45.72027344 -45.4015625 45.44054688 -44.578125 45.15234375 C-27.24060357 38.82374144 -14.1796354 30.23050745 -6.13085938 13.15625 C-4.7446268 10.05209038 -3.44210386 6.92411701 -2.1640625 3.7734375 C-1 1 -1 1 0 0 Z " fill="#94989D" transform="translate(1935,1888)"/>
<path d="M0 0 C40.62903226 0 40.62903226 0 48.54296875 7.453125 C54.63125993 14.52339863 54.69329934 21.17019415 54.19091797 30.09423828 C53.59765394 36.01625749 51.04887336 40.3159632 46.8125 44.375 C39.66208815 49.70749369 32.12000122 50.4339513 23.4375 50.1875 C18.7659375 50.0946875 18.7659375 50.0946875 14 50 C14 59.57 14 69.14 14 79 C9.38 79 4.76 79 0 79 C0 52.93 0 26.86 0 0 Z " fill="#F1F2EF" transform="translate(729,1804)"/>
<path d="M0 0 C5.3019694 2.75313273 7.84535189 6.69470431 10.11328125 12.08203125 C11.24801427 16.37602095 11.29193022 20.32985628 11.25 24.75 C11.26160156 25.9555957 11.26160156 25.9555957 11.2734375 27.18554688 C11.24621451 35.64509238 10.27439405 43.0651165 4.74609375 49.70703125 C-0.09407014 54.50388271 -4.75171697 55.69574215 -11.5 56 C-17.51776211 55.78408492 -21.6621233 54.7034214 -26 50.4375 C-34.07445347 40.35478503 -34.01912116 28.78685052 -33 16.4375 C-31.71028473 9.87308098 -29.03100086 5.69810067 -23.78125 1.59375 C-16.67358264 -3.01999899 -7.88412542 -3.08739701 0 0 Z " fill="#2D353C" transform="translate(843,1816.5625)"/>
<path d="M0 0 C6.47025202 4.17870443 10.02790662 9.45434011 12 16.9375 C12.39923873 20.26300821 12.42087054 23.52899898 12.375 26.875 C12.38660156 27.71740234 12.39820313 28.55980469 12.41015625 29.42773438 C12.37118091 37.86589582 10.56199266 45.27964918 4.6484375 51.49609375 C-0.69621821 56.16950123 -6.19396028 56.47807619 -13.05859375 56.2890625 C-18.61125073 55.62539832 -22.34393032 53.54881104 -26.3125 49.6875 C-32.67576749 39.31773075 -34.05784393 25.78034934 -31.31640625 14 C-29.01709041 8.50453973 -25.24208615 3.09409832 -20.23828125 -0.234375 C-14.38783932 -2.39893641 -5.87335937 -2.13816678 0 0 Z " fill="#2E363D" transform="translate(1312,1816.0625)"/>
<path d="M0 0 C5.2954677 3.96544325 7.93938891 8.99851793 9.6796875 15.2578125 C10.07273008 18.23117792 10.11021987 21.13695362 10.0546875 24.1328125 C10.04526123 24.92147705 10.03583496 25.7101416 10.02612305 26.52270508 C9.79806553 35.34971208 8.19467319 43.82810149 1.6796875 50.2578125 C-3.49971146 54.31701587 -8.96455409 54.94303254 -15.41796875 54.70703125 C-21.38464919 53.78352082 -24.88037234 50.63375532 -29.1328125 46.5703125 C-35.69239521 36.63723011 -35.96824964 23.58041328 -33.69921875 12.12109375 C-31.59326592 6.00915065 -27.75511225 1.72886625 -22.3203125 -1.7421875 C-15.24112163 -4.22868016 -6.45369221 -3.82936924 0 0 Z " fill="#2E363D" transform="translate(1132.3203125,1817.7421875)"/>
<path d="M0 0 C15.84 0 31.68 0 48 0 C48 3.96 48 7.92 48 12 C37.11 12 26.22 12 15 12 C15 19.59 15 27.18 15 35 C25.23 35 35.46 35 46 35 C46 38.96 46 42.92 46 47 C35.77 47 25.54 47 15 47 C15 57.56 15 68.12 15 79 C10.05 79 5.1 79 0 79 C0 52.93 0 26.86 0 0 Z " fill="#EBECE9" transform="translate(1024,1804)"/>
<path d="M0 0 C20.46 0 40.92 0 62 0 C62 3.96 62 7.92 62 12 C54.08 12 46.16 12 38 12 C38 34.11 38 56.22 38 79 C33.38 79 28.76 79 24 79 C24 56.89 24 34.78 24 12 C16.08 12 8.16 12 0 12 C0 8.04 0 4.08 0 0 Z " fill="#F1F2EE" transform="translate(950,1804)"/>
<path d="M0 0 C4.95 0 9.9 0 15 0 C15 22.11 15 44.22 15 67 C25.89 67 36.78 67 48 67 C48 70.96 48 74.92 48 79 C32.16 79 16.32 79 0 79 C0 52.93 0 26.86 0 0 Z " fill="#E9EAE7" transform="translate(1173,1804)"/>
<path d="M0 0 C4.62 0 9.24 0 14 0 C14 26.07 14 52.14 14 79 C9.38 79 4.76 79 0 79 C0 52.93 0 26.86 0 0 Z " fill="#F0F1EE" transform="translate(1235,1804)"/>
<path d="M0 0 C2.51625 -0.061875 5.0325 -0.12375 7.625 -0.1875 C8.79603271 -0.22846802 8.79603271 -0.22846802 9.99072266 -0.27026367 C15.90028893 -0.34002626 19.88935662 1.11152961 24.375 5.125 C26.66030234 9.16822723 26.63369505 12.45985573 26 17 C24.79072525 21.00572262 23.25010968 23.19123592 19.75 25.375 C13.6025069 28.17141604 6.56726564 27.2345452 0 27 C0 18.09 0 9.18 0 0 Z " fill="#30383E" transform="translate(743,1816)"/>
<path d="M0 0 C2.51625 -0.061875 5.0325 -0.12375 7.625 -0.1875 C8.79603271 -0.22846802 8.79603271 -0.22846802 9.99072266 -0.27026367 C15.9159412 -0.34021103 19.9291423 1.09263106 24.375 5.1875 C26.53520587 8.92631786 26.69480336 11.77971293 26 16 C24.11376988 20.61078475 21.32265197 22.64218983 17 25 C14.01414437 25.46087098 11.1365531 25.3816717 8.125 25.25 C5.44375 25.1675 2.7625 25.085 0 25 C0 16.75 0 8.5 0 0 Z " fill="#32393F" transform="translate(899,1816)"/>
<path d="M0 0 C3.93677426 1.31225809 4.8271782 3.1961394 7.1875 6.5625 C7.90292969 7.57441406 8.61835937 8.58632812 9.35546875 9.62890625 C9.89816406 10.41136719 10.44085937 11.19382812 11 12 C10.67 12.66 10.34 13.32 10 14 C9.54109375 13.52949219 9.0821875 13.05898437 8.609375 12.57421875 C4.08450705 7.96631602 4.08450705 7.96631602 -1 4 C-0.67 2.68 -0.34 1.36 0 0 Z " fill="#3B4041" transform="translate(905,1204)"/>
<path d="M0 0 C0.99 0.33 1.98 0.66 3 1 C1.61392377 2.46761013 0.21568805 3.92374189 -1.1875 5.375 C-1.96480469 6.18710937 -2.74210938 6.99921875 -3.54296875 7.8359375 C-5.987055 9.98859852 -7.92616557 11.00632706 -11 12 C-7.49102731 7.81576108 -3.91939465 3.80411834 0 0 Z " fill="#3E464A" transform="translate(718,645)"/>
<path d="M0 0 C0.33 1.32 0.66 2.64 1 4 C-3.455 7.96 -3.455 7.96 -8 12 C-8.99 11.67 -9.98 11.34 -11 11 C-7.37 7.37 -3.74 3.74 0 0 Z " fill="#3E454A" transform="translate(1330,929)"/>
<path d="M0 0 C0 3 0 3 -2.1875 5.48046875 C-3.115625 6.37378906 -4.04375 7.26710938 -5 8.1875 C-5.928125 9.08855469 -6.85625 9.98960937 -7.8125 10.91796875 C-8.534375 11.60503906 -9.25625 12.29210937 -10 13 C-10.66 12.67 -11.32 12.34 -12 12 C-8.27653164 7.57905197 -4.70478962 3.42166518 0 0 Z " fill="#3C4348" transform="translate(736,386)"/>
<path d="M0 0 C0.33 0 0.66 0 1 0 C1.33266291 6.20970773 0.45029331 10.28264895 -2 16 C-3.18056334 12.4998791 -2.82576105 9.90750019 -2.125 6.3125 C-1.85042969 4.85263672 -1.85042969 4.85263672 -1.5703125 3.36328125 C-1 1 -1 1 0 0 Z " fill="#3F4447" transform="translate(829,1286)"/>
<path d="M0 0 C0.99 0.33 1.98 0.66 3 1 C2.0919838 2.13199353 1.17316174 3.25532363 0.25 4.375 C-0.26046875 5.00148438 -0.7709375 5.62796875 -1.296875 6.2734375 C-3.08199481 8.08312318 -4.67949644 9.00117455 -7 10 C-6.02223933 8.51990357 -5.0427506 7.04094856 -4.0625 5.5625 C-3.51722656 4.73878906 -2.97195313 3.91507813 -2.41015625 3.06640625 C-1 1 -1 1 0 0 Z " fill="#3E4242" transform="translate(803,1207)"/>
<path d="M0 0 C0.66 0.33 1.32 0.66 2 1 C0.54782324 2.50596108 -0.91192861 4.00462104 -2.375 5.5 C-3.18710937 6.3353125 -3.99921875 7.170625 -4.8359375 8.03125 C-7 10 -7 10 -9 10 C-7.61811547 6.78956118 -6.07578097 4.95063635 -3.375 2.75 C-2.74335937 2.22921875 -2.11171875 1.7084375 -1.4609375 1.171875 C-0.73777344 0.59179688 -0.73777344 0.59179688 0 0 Z " fill="#3F454A" transform="translate(564,1188)"/>
<path d="M0 0 C1.98 0.495 1.98 0.495 4 1 C3.34 2.32 2.68 3.64 2 5 C1.01 4.34 0.02 3.68 -1 3 C-0.67 2.01 -0.34 1.02 0 0 Z " fill="#34383B" transform="translate(805,1204)"/>
</svg>
